<svg xmlns="http://www.w3.org/2000/svg" style="display:none;">
  <defs>
    <!-- Corner Floral Ornament -->
    <g id="ornament-corner">
      <path d="M0,0 L40,0 C30,10 25,25 25,40 L0,40 Z" fill="var(--gold-luxury, #C8A44D)" opacity="0.15"/>
      <path d="M4,4 L36,4 M4,4 L4,36" stroke="var(--gold-luxury, #C8A44D)" stroke-width="1.2" fill="none"/>
      <path d="M8,8 C20,10 30,20 32,32" stroke="var(--gold-soft, #D9BC73)" stroke-width="0.8" fill="none"/>
      <circle cx="32" cy="32" r="2.5" fill="var(--gold-luxury, #C8A44D)"/>
      <circle cx="20" cy="20" r="1.5" fill="var(--gold-soft, #D9BC73)"/>
    </g>

    <!-- Luxury Gold Divider -->
    <g id="ornament-divider">
      <path d="M0 12 H120 M180 12 H300" stroke="var(--gold-soft, #D9BC73)" stroke-width="0.8" fill="none"/>
      <path d="M100 12 Q130 2 150 12 Q170 2 200 12" stroke="var(--gold-luxury, #C8A44D)" stroke-width="1.2" fill="none"/>
      <path d="M125 12 C135 6 140 18 150 12 C160 6 165 18 175 12" stroke="var(--gold-luxury, #C8A44D)" stroke-width="1" fill="none"/>
      <polygon points="150,6 154,12 150,18 146,12" fill="var(--gold-luxury, #C8A44D)"/>
      <circle cx="135" cy="12" r="2" fill="var(--gold-soft, #D9BC73)"/>
      <circle cx="165" cy="12" r="2" fill="var(--gold-soft, #D9BC73)"/>
    </g>

    <!-- Decorative Gold Crest -->
    <g id="ornament-crest">
      <path d="M100,10 C140,2 160,2 200,10 C220,40 210,70 150,90 C90,70 80,40 100,10 Z" fill="none" stroke="var(--gold-luxury, #C8A44D)" stroke-width="1.2"/>
      <path d="M110,18 C140,12 160,12 190,18 C205,42 195,66 150,82 C105,66 95,42 110,18 Z" fill="none" stroke="var(--gold-soft, #D9BC73)" stroke-width="0.8"/>
      <circle cx="150" cy="50" r="12" fill="none" stroke="var(--gold-luxury, #C8A44D)" stroke-width="1"/>
      <polygon points="150,42 153,48 160,50 153,52 150,58 147,52 140,50 147,48" fill="var(--gold-luxury, #C8A44D)"/>
    </g>
    
    <!-- SVG Vector Group from Sneha Invite Artwork -->
    <g id="ornament-vector-artwork">
      <path d="M143.83,260.59c0,.77-.77,1.88-2.31,3.32s-3.43,2.83-5.65,4.16c-.29.91-.71,2.57-1.27,4.97-.9,3.76-1.72,6.42-2.47,8-.75,1.58-1.99,3.18-3.72,4.81-4.99,4.72-10.58,7.08-16.77,7.08-1.78,0-3.34-.3-4.7-.89-.75,1.47-1.13,2.75-1.13,3.84,0,1.38.46,2.64,1.38,3.8.1.1.14.21.14.34s-.08.19-.24.19c-.37,0-.77-.5-1.2-1.49-.43-.99-.64-1.92-.64-2.79,0-1.25.41-2.63,1.22-4.13-3.34-1.73-5.01-4.69-5.01-8.9,0-2.7.8-5.39,2.4-8.06,1.6-2.67,3.85-5.08,6.74-7.22,3.69-2.72,7.35-4.08,10.96-4.08,1.97,0,3.53.55,4.69,1.65s1.74,2.6,1.74,4.49c0,1.01-.14,2.06-.43,3.14,2.35-1.57,4.43-2.89,6.24-3.98,1.15-2.51,2.6-4.67,4.34-6.48,1.74-1.81,3.26-2.71,4.56-2.71.75,0,1.13.31,1.13.94ZM127.56,269.59c0-1.68-.53-3.03-1.6-4.05-1.06-1.02-2.47-1.54-4.21-1.54-4.3,0-8.46,2.24-12.49,6.72-4.02,4.48-6.03,9.12-6.03,13.91,0,3.15,1.16,5.39,3.48,6.72,1.09-1.79,2.65-3.75,4.68-5.88-1.06-.91-1.58-2-1.58-3.26,0-.96.3-1.78.91-2.46.61-.68,1.34-1.02,2.21-1.02,1.07,0,1.61.5,1.61,1.49,0,.51-.2.96-.6,1.33-.4.38-.87.56-1.42.56-.78,0-1.18-.38-1.18-1.13,0-.24.08-.5.24-.77.06-.21.1-.33.1-.36,0-.1-.05-.14-.14-.14-.27,0-.55.29-.84.86s-.43,1.14-.43,1.7c0,1.06.49,2,1.46,2.83,3.21-3.39,8.29-7.35,15.23-11.87.4-1.41.6-2.62.6-3.65ZM133.51,269.49c-1.87,1.18-3.92,2.53-6.14,4.03-1.06,3.39-2.91,6.36-5.55,8.92-2.65,2.56-5.19,3.84-7.62,3.84-.74,0-1.54-.19-2.42-.58-1.81,1.87-3.34,3.84-4.61,5.9,1.31.59,2.8.89,4.46.89,3.01,0,5.92-.85,8.73-2.55,2.81-1.7,5.23-4.07,7.24-7.09.94-1.41,1.69-2.71,2.23-3.92.54-1.21,1.42-3.48,2.64-6.82.29-.83.63-1.7,1.03-2.61ZM126.72,273.91l-1.58,1.08c-6.03,4.16-10.38,7.62-13.05,10.39.67.35,1.39.53,2.16.53,2.24,0,4.58-1.18,7.03-3.53,2.45-2.35,4.26-5.17,5.45-8.47ZM143.37,260.64c0-.38-.22-.58-.67-.58-1.07,0-2.27.74-3.59,2.22-1.32,1.48-2.34,3.21-3.06,5.19,2.11-1.3,3.86-2.59,5.24-3.89,1.38-1.3,2.08-2.28,2.08-2.95Z" fill="var(--gold-luxury, #C8A44D)"/>
      <path d="M153.41,284.43c0,.34-1.16,1.89-3.48,4.66-1.91,2.27-3.4,3.41-4.49,3.41-.72,0-1.33-.28-1.81-.84-.49-.56-.73-1.25-.73-2.06,0-.72.15-1.39.44-2,.29-.62,1.07-1.84,2.31-3.66,1.29-1.92,1.94-3.14,1.94-3.67,0-.66-.34-.98-1.03-.98-2.33,0-5.93,4.33-10.79,13-.78-.06-1.26-.1-1.42-.1-.56,0-1.09.03-1.58.1l3.74-5.92c2.13-3.39,3.19-5.51,3.19-6.36,0-.48-.2-.72-.6-.72-.82,0-2.43,1.72-4.83,5.17-.14.21-.26.32-.34.34-.08,0-.13-.05-.14-.14.02-.08.05-.14.1-.19l.46-.6c2.45-3.29,4.1-4.93,4.95-4.93.54,0,1.01.25,1.39.74.38.5.58,1.09.58,1.78,0,1.02-.6,2.45-1.8,4.27,1.89-2.61,3.34-4.39,4.35-5.35s1.96-1.44,2.82-1.44c.7,0,1.29.29,1.78.86.48.58.72,1.29.72,2.13,0,1.07-.74,2.71-2.21,4.92-1.5,2.25-2.25,3.69-2.25,4.32,0,.66.33.98.98.98,1.43,0,3.88-2.54,7.38-7.62.08-.16.16-.24.24-.24.1,0,.14.05.14.14Z" fill="var(--gold-luxury, #C8A44D)"/>
      <path d="M165.5,284.45s-.14.26-.43.62l-1.03,1.29c-3.31,4.09-6.15,6.13-8.52,6.13-1.12,0-2.06-.4-2.82-1.21s-1.14-1.82-1.14-3.03c0-2.88,2.01-5.41,6.02-7.6,2.11-1.15,3.83-1.73,5.16-1.73.58,0,1.07.17,1.47.52.41.34.61.76.61,1.26,0,1.15-.75,2.13-2.25,2.94-1.5.81-4.01,1.56-7.53,2.27-1.09,1.65-1.63,3.02-1.63,4.13,0,1.38.74,2.06,2.23,2.06,2.53,0,5.63-2.47,9.29-7.4.19-.26.35-.38.48-.38.06.02.1.06.1.14ZM163.47,280c0-.51-.28-.77-.84-.77-.85,0-1.96.59-3.35,1.76-1.38,1.18-2.74,2.7-4.07,4.57,2.3-.59,4.25-1.43,5.85-2.51,1.6-1.08,2.4-2.1,2.4-3.06Z" fill="var(--gold-luxury, #C8A44D)"/>
      <path d="M180.83,284.38c0,.13-.08.27-.24.43l-1.03,1.42c-3.01,4.18-5.25,6.27-6.72,6.27-.77,0-1.4-.28-1.88-.83-.49-.55-.73-1.24-.73-2.07,0-1.12.61-2.58,1.82-4.39,1.9-2.8,2.85-4.46,2.85-4.99,0-.62-.33-.94-.98-.94-.96,0-2.27.94-3.93,2.83-1.6,1.81-3.8,5.23-6.6,10.27-.48-.1-.89-.14-1.22-.14s-.82.05-1.42.14l3.53-6.38c.48-.91,1.21-2.25,2.21-4.03.53-.86,2.15-3.61,4.87-8.25l3.65-6.19c.48.1.89.14,1.22.14.64,0,1.25-.08,1.82-.24-1.66,2.67-4.14,6.67-7.44,11.99-.1.16-1.34,2.22-3.72,6.19,3.01-4.46,5.38-6.69,7.12-6.69.69,0,1.27.3,1.76.89.49.59.73,1.31.73,2.16,0,1.1-.7,2.69-2.11,4.77-1.57,2.32-2.35,3.77-2.35,4.37,0,.69.34,1.03,1.03,1.03,1.25,0,3.32-2.02,6.2-6.05l.74-1.03.43-.53c.08-.16.18-.24.29-.24.06,0,.1.03.1.1Z" fill="var(--gold-luxury, #C8A44D)"/>
      <path d="M197.74,284.43c0,.34-1.17,1.89-3.51,4.66-1.89,2.27-3.38,3.41-4.47,3.41-.74,0-1.34-.28-1.8-.83s-.7-1.24-.7-2.07.26-1.8.77-2.81c-1.6,2.24-2.82,3.75-3.67,4.53-.85.78-1.67,1.18-2.47,1.18-.85,0-1.56-.36-2.13-1.09-.58-.73-.86-1.64-.86-2.75,0-3.07,2.17-5.79,6.5-8.16,1.9-1.06,3.44-1.58,4.61-1.58.99,0,1.49.48,1.49,1.44,0,.27-.06.63-.19,1.08l1.22-2.33c.48.11.9.17,1.27.17.43,0,.99-.06,1.68-.17l-4.25,7.03c-1.47,2.46-2.21,4.09-2.21,4.87s.31,1.13.94,1.13,1.67-.73,3.08-2.2,2.84-3.27,4.3-5.42c.1-.16.18-.24.26-.24.1,0,.14.05.14.14ZM191.13,280.46c0-.78-.36-1.18-1.08-1.18-1.47,0-3.4,1.44-5.79,4.32s-3.59,5.21-3.59,6.98c0,1.04.46,1.56,1.39,1.56,1.1,0,3.01-1.83,5.73-5.49,2.22-3.01,3.33-5.07,3.33-6.19Z" fill="var(--gold-luxury, #C8A44D)"/>
      <path d="M272.59,258.7c0,.24-.64.66-1.92,1.25-1.33.59-2.78,1.1-4.37,1.54-2.75,2.29-5.07,4.78-6.97,7.48-1.9,2.7-3.99,6.53-6.3,11.49h.6c2.71,0,4.98-1,6.82-3,.91-.99,1.55-2.3,1.92-3.93.06-.26.16-.38.29-.38.14,0,.22.08.22.24,0,1.79-.98,3.48-2.94,5.07-1.96,1.59-4.05,2.39-6.26,2.39-.34,0-.62-.02-.84-.05-.1.21-.58,1.19-1.44,2.95-2,4.08-3.68,7-5.05,8.76s-3.14,3.33-5.31,4.7c-3.47,2.19-7.02,3.29-10.65,3.29-2.09,0-3.81-.47-5.16-1.42-1.34-.94-2.01-2.14-2.01-3.6,0-.8.23-1.48.68-2.04.46-.56,1.01-.84,1.67-.84,1.06,0,1.58.54,1.58,1.61,0,1.28-.58,1.92-1.73,1.92-.83,0-1.27-.52-1.32-1.56,0-.06-.02-.12-.05-.17-.27,0-.41.38-.41,1.15,0,1.26.64,2.32,1.91,3.18s2.87,1.28,4.79,1.28c4.09,0,7.63-1.67,10.6-5.01,1.17-1.31,2.29-2.89,3.36-4.73,1.74-3.09,3.49-6.18,5.25-9.28l.38-.67c-1.62-.5-2.9-1.37-3.86-2.63-.96-1.25-1.44-2.69-1.44-4.31,0-2.88,1.19-5.29,3.57-7.22,1.41-1.14,2.83-1.93,4.26-2.37,1.43-.45,4.01-.9,7.74-1.37,1.63-.19,3.58-.57,5.85-1.13,2.97-1.9,5.04-2.85,6.19-2.85.22,0,.34.09.34.26ZM265.6,261.67c-1.09.27-2.56.62-4.41,1.03-3.01.67-5.29,1.34-6.86,1.99s-3,1.54-4.29,2.64c-2.75,2.35-4.13,4.82-4.13,7.41s1.41,4.26,4.22,5.21c4.8-8.68,9.95-14.78,15.47-18.28Z" fill="var(--gold-luxury, #C8A44D)"/>
      <path d="M272.15,284.45s-.14.26-.43.62l-1.03,1.29c-3.31,4.09-6.15,6.13-8.52,6.13-1.12,0-2.06-.4-2.82-1.21s-1.14-1.82-1.14-3.03c0-2.88,2.01-5.41,6.02-7.6,2.11-1.15,3.83-1.73,5.16-1.73.58,0,1.07.17,1.47.52.41.34.61.76.61,1.26,0,1.15-.75,2.13-2.25,2.94-1.5.81-4.01,1.56-7.53,2.27-1.09,1.65-1.63,3.02-1.63,4.13,0,1.38.74,2.06,2.23,2.06,2.53,0,5.63-2.47,9.29-7.4.19-.26.35-.38.48-.38.06.02.1.06.1.14ZM270.12,280c0-.51-.28-.77-.84-.77-.85,0-1.96.59-3.35,1.76-1.38,1.18-2.74,2.7-4.07,4.57,2.3-.59,4.25-1.43,5.85-2.51,1.6-1.08,2.4-2.1,2.4-3.06Z" fill="var(--gold-luxury, #C8A44D)"/>
      <path d="M289.88,267.24c0,1.42-1.01,3.21-3.02,5.36s-4.66,4.26-7.92,6.32h4.13l-.22.36h-4.17l-1.97,3.81c-2.42,4.72-4.48,8.27-6.19,10.66-1.71,2.39-3.69,4.52-5.93,6.39-3.09,2.56-5.96,3.84-8.61,3.84-1.18,0-1.78-.17-1.78-.52,0-.16.09-.24.26-.24.13,0,.22.02.29.05.58.17,1.12.25,1.63.25,2.16,0,4.33-.97,6.53-2.9,1.34-1.18,2.52-2.58,3.53-4.17.83-1.28,2.8-4.77,5.9-10.46l3.7-6.72h-2.57l.19-.36h2.62c2.05-3.47,4.31-6.47,6.79-9.01s4.39-3.8,5.74-3.8c.72,0,1.08.38,1.08,1.13ZM289.59,267.19c0-.53-.26-.79-.79-.79-1.22,0-2.87,1.39-4.97,4.17-1.04,1.41-2.61,4.03-4.7,7.87,2.62-1.82,5.02-3.9,7.2-6.24,2.18-2.33,3.26-4.01,3.26-5.01Z" fill="var(--gold-luxury, #C8A44D)"/>
      <path d="M297.88,267.24c0,1.42-1.01,3.21-3.02,5.36s-4.66,4.26-7.92,6.32h4.13l-.22.36h-4.17l-1.97,3.81c-2.42,4.72-4.48,8.27-6.19,10.66-1.71,2.39-3.69,4.52-5.93,6.39-3.09,2.56-5.96,3.84-8.61,3.84-1.18,0-1.78-.17-1.78-.52,0-.16.09-.24.26-.24.13,0,.22.02.29.05.58.17,1.12.25,1.63.25,2.16,0,4.33-.97,6.53-2.9,1.34-1.18,2.52-2.58,3.53-4.17.83-1.28,2.8-4.77,5.9-10.46l3.7-6.72h-2.57l.19-.36h2.62c2.05-3.47,4.31-6.47,6.79-9.01s4.39-3.8,5.74-3.8c.72,0,1.08.38,1.08,1.13ZM297.59,267.19c0-.53-.26-.79-.79-.79-1.22,0-2.87,1.39-4.97,4.17-1.04,1.41-2.61,4.03-4.7,7.87,2.62-1.82,5.02-3.9,7.2-6.24,2.18-2.33,3.26-4.01,3.26-5.01Z" fill="var(--gold-luxury, #C8A44D)"/>
      <path d="M297.83,284.43s-.1.18-.24.38l-1.03,1.42c-3.01,4.18-5.31,6.27-6.89,6.27-.75,0-1.38-.27-1.89-.8-.5-.54-.76-1.2-.76-2,0-.93.55-2.33,1.66-4.22l3.74-6.36c.5.11.89.17,1.17.17.43,0,1.04-.06,1.82-.17l-5.45,8.95c-.78,1.29-1.17,2.29-1.17,3s.38,1.08,1.13,1.08c1.42,0,3.93-2.54,7.52-7.62.08-.16.16-.24.24-.24.1,0,.14.05.14.14ZM297.48,274.51c0,.56-.24,1.08-.71,1.57s-.99.73-1.55.73c-.72,0-1.08-.36-1.08-1.08,0-.53.25-1.04.74-1.52.5-.49,1.01-.73,1.56-.73.69,0,1.03.34,1.03,1.03Z" fill="var(--gold-luxury, #C8A44D)"/>
      <path d="M318.56,284.43c0,.34-1.16,1.89-3.48,4.66-1.91,2.27-3.4,3.41-4.49,3.41-.72,0-1.33-.28-1.81-.84-.49-.56-.73-1.25-.73-2.06,0-.72.15-1.39.44-2,.29-.62,1.07-1.84,2.31-3.66,1.29-1.92,1.94-3.14,1.94-3.67,0-.66-.34-.98-1.03-.98-2.33,0-5.93,4.33-10.79,13-.78-.06-1.26-.1-1.42-.1-.56,0-1.09.03-1.58.1l3.74-5.92c2.13-3.39,3.19-5.51,3.19-6.36,0-.48-.2-.72-.6-.72-.82,0-2.43,1.72-4.83,5.17-.14.21-.26.32-.34.34-.08,0-.13-.05-.14-.14.02-.08.05-.14.1-.19l.46-.6c2.45-3.29,4.1-4.93,4.95-4.93.54,0,1.01.25,1.39.74.38.5.58,1.09.58,1.78,0,1.02-.6,2.45-1.8,4.27,1.89-2.61,3.34-4.39,4.35-5.35s1.96-1.44,2.82-1.44c.7,0,1.29.29,1.78.86.48.58.72,1.29.72,2.13,0,1.07-.74,2.71-2.21,4.92-1.5,2.25-2.25,3.69-2.25,4.32,0,.66.33.98.98.98,1.43,0,3.88-2.54,7.38-7.62.08-.16.16-.24.24-.24.1,0,.14.05.14.14Z" fill="var(--gold-luxury, #C8A44D)"/>
      <path d="M216.31,289.32s-.03.01-.03.02l-.08.04c-.91.47-1.87.7-2.89.7-.8,0-1.52-.14-2.14-.43-.62-.29-1.1-.7-1.44-1.22-.34-.53-.5-1.14-.5-1.84,0-1.59,1.05-2.98,3.15-4.17l.07-.04v-.06c0-.7.11-1.4.32-2.07.22-.68.5-1.23.85-1.66.64-.78,1.34-1.17,2.11-1.17.41,0,.75.12,1,.36s.39.53.39.89c0,.79-.59,1.56-1.77,2.32-.2.13-.56.35-1.1.65-.58.32-.96.53-1.15.62.03.59.18,1.26.46,2.02s.62,1.43,1.01,2.01c.61.89,1.37,1.67,2.29,2.34.46-.33.86-.71,1.22-1.14.36-.43.64-.88.85-1.34.21-.46.31-.89.31-1.3s-.11-.76-.33-1.01c-.22-.26-.5-.39-.85-.39-.91,0-1.59.8-2.04,2.4l-.51-.75c.12-.42.31-.8.55-1.14.24-.33.53-.59.85-.77s.66-.27,1-.27c.31,0,.6.08.85.23.25.16.46.38.6.66.15.28.22.59.22.93s-.06.68-.19,1.04-.29.72-.51,1.07c-.21.35-.48.71-.81,1.06s-.65.65-.98.89l.05.03c.67.42,1.34.63,2.02.63.52,0,.97-.1,1.34-.3.37-.2.74-.54,1.12-1.03l.14.16c-.78,1.18-1.79,1.77-3.04,1.77-.84,0-1.65-.24-2.44-.71ZM216,289.14c-1-.65-1.81-1.55-2.45-2.69-.63-1.14-1-2.38-1.1-3.72v-.05c-1.47.93-2.2,2.07-2.2,3.41,0,1,.35,1.83,1.05,2.49.7.66,1.57.99,2.62.99.72,0,1.42-.15,2.08-.44ZM213.11,281.98c.93-.5,1.64-.93,2.11-1.3.36-.27.65-.58.86-.94.21-.36.32-.71.32-1.03,0-.28-.09-.5-.26-.66s-.4-.23-.69-.23c-.42,0-.81.17-1.17.51-.36.34-.65.8-.87,1.38-.22.58-.32,1.2-.32,1.85v.42Z" fill="var(--gold-luxury, #C8A44D)"/>
      <path d="M192.37,316.79h-79.65c-.13-.14-.14-.37-.04-.59h79.75s-.06.59-.06.59Z" fill="var(--gold-luxury, #C8A44D)"/>
      <path d="M245.18,316.79h-13.54s-3.89-.01-3.89-.01c-.15,0-.18-.45-.03-.58h79.67c.04.21.04.37,0,.59h-62.22Z" fill="var(--gold-luxury, #C8A44D)"/>
      <path d="M216.14,314.44c-.29,2.95-3.83,6.17-6.11,8.26l-2.09-1.96c-1.28-1.2-2.38-2.5-3.27-4.03-.73-1.26-1.01-2.78-.49-4.12.45-1.16,1.5-1.88,2.6-1.94,1.27-.11,2.34.55,2.93,1.7l.28.25c.06.05.27-.12.3-.2.74-1.48,2.53-2.21,4.06-1.48,1.32.63,1.93,2.06,1.79,3.52ZM213.57,311.47c-1.87-.32-2.87,1.08-3.15,2.89-.02.13-.24.29-.35.31s-.4-.11-.42-.23c-.25-1.67-.97-3.01-2.72-3-.95,0-1.8.56-2.08,1.49s-.14,1.97.18,2.92c.58,1.12,1.23,2.14,2.12,3.04l2.87,2.94,2.8-2.88c.9-.93,1.6-1.93,2.17-3.1.66-1.82.36-4.07-1.43-4.37Z" fill="var(--gold-luxury, #C8A44D)"/>
      <path d="M197.39,317.38c-.4.56-.97.83-1.58.8-.55-.03-1.05-.42-1.37-.98s-.19-1.15.14-1.7c.27-.46.85-.83,1.5-.79.6.03,1.09.44,1.35.86.35.57.37,1.25-.03,1.81Z" fill="var(--gold-luxury, #C8A44D)"/>
      <path d="M225.79,316.73c-.23,1.01-1.11,1.55-1.96,1.42s-1.6-1.01-1.4-1.94c.17-.8.82-1.49,1.66-1.5,1.01-.01,1.93,1.02,1.7,2.02Z" fill="var(--gold-luxury, #C8A44D)"/>
      <path d="M179.86,377.46v-.86c.2,0,.37-.03.5-.08.13-.04.24-.14.31-.3.07-.16.11-.41.11-.75v-5.21l-1.42.84-.47-.78,2.98-2.17h.78v7.18c0,.23,0,.46,0,.68,0,.22-.02.38-.03.49.14-.02.31-.03.53-.03.21,0,.36,0,.45,0v1h-3.73Z" fill="var(--gold-luxury, #C8A44D)"/>
      <path d="M187.91,377.66c-.31,0-.64-.04-.98-.12-.34-.08-.66-.2-.96-.38-.3-.17-.54-.41-.73-.7s-.28-.65-.28-1.07c0-.33.08-.65.25-.95s.38-.58.64-.84c.26-.25.53-.47.82-.63-.57-.36-.98-.75-1.22-1.18-.24-.43-.36-.82-.36-1.17,0-.42.09-.79.27-1.1.18-.31.41-.57.71-.77.29-.2.61-.36.96-.46.34-.1.68-.15,1.02-.15.45,0,.88.08,1.29.25s.74.42,1,.75c.26.33.39.73.39,1.21,0,.29-.08.58-.23.84-.16.27-.35.51-.59.73-.24.22-.48.4-.72.56.44.27.81.55,1.09.84s.5.6.64.92c.14.32.21.64.21.97,0,.56-.15,1.03-.45,1.38-.3.36-.69.63-1.18.8-.49.17-1.02.26-1.58.26ZM187.92,376.75c.42,0,.74-.11.98-.36s.36-.55.36-.9c0-.33-.12-.67-.36-1.02-.24-.35-.68-.69-1.33-1.01-.35.27-.6.57-.76.92-.16.34-.25.64-.27.89-.02.41.1.75.36,1.04.26.29.6.43,1.01.44ZM188.34,371.96c.28-.21.51-.46.7-.75.19-.29.28-.56.29-.8.02-.43-.09-.77-.33-1s-.52-.35-.85-.35c-.25,0-.47.05-.66.16s-.33.25-.43.44c-.1.18-.15.39-.15.61,0,.34.14.67.42.98.28.32.61.55,1,.71Z" fill="var(--gold-luxury, #C8A44D)"/>
      <path d="M193.32,377.66c-.28,0-.5-.1-.68-.3s-.27-.44-.27-.71.1-.52.29-.72c.19-.2.41-.3.66-.3.27,0,.49.1.67.3.18.2.27.44.27.72s-.08.52-.25.71-.4.3-.68.3Z" fill="var(--gold-luxury, #C8A44D)"/>
      <path d="M195.99,377.46v-.86c.2,0,.37-.03.5-.08.13-.04.24-.14.31-.3.07-.16.11-.41.11-.75v-5.21l-1.42.84-.47-.78,2.98-2.17h.78v7.18c0,.23,0,.46,0,.68,0,.22-.02.38-.03.49.14-.02.31-.03.53-.03.21,0,.36,0,.45,0v1h-3.73Z" fill="var(--gold-luxury, #C8A44D)"/>
      <path d="M204.49,377.66c-.66,0-1.22-.14-1.68-.42-.46-.28-.83-.65-1.1-1.12-.28-.46-.48-.97-.6-1.53-.13-.55-.19-1.1-.19-1.65s.08-1.1.23-1.66c.15-.56.38-1.08.68-1.55.3-.47.68-.85,1.13-1.14.45-.29.98-.44,1.59-.44s1.17.14,1.62.43.81.66,1.09,1.12c.28.46.48.97.61,1.53s.2,1.1.2,1.65-.07,1.09-.21,1.65c-.14.56-.36,1.08-.66,1.55-.29.47-.67.85-1.11,1.14s-.97.44-1.58.44ZM204.57,376.74c.3,0,.55-.1.75-.29s.35-.45.46-.79c.11-.33.18-.72.23-1.15.04-.43.07-.89.07-1.36,0-.53-.02-1.04-.06-1.53-.04-.49-.11-.93-.22-1.31s-.26-.69-.47-.92c-.2-.23-.47-.34-.81-.34-.31,0-.57.1-.78.29-.21.19-.38.46-.5.79-.13.34-.21.72-.27,1.16s-.08.89-.08,1.38c0,.36.01.74.03,1.12.02.38.07.75.13,1.1.07.35.16.67.28.94.12.28.28.5.49.66.2.17.45.25.75.25Z" fill="var(--gold-luxury, #C8A44D)"/>
      <path d="M210.06,377.66c-.28,0-.5-.1-.68-.3s-.27-.44-.27-.71.1-.52.29-.72c.19-.2.41-.3.66-.3.27,0,.49.1.67.3.18.2.27.44.27.72s-.08.52-.25.71-.4.3-.68.3Z" fill="var(--gold-luxury, #C8A44D)"/>
      <path d="M212.2,377.46c0-.45.06-.85.18-1.21s.27-.68.47-.96c.2-.29.41-.55.65-.79s.48-.48.73-.71c.63-.59,1.08-1.12,1.35-1.6.26-.48.4-.95.4-1.42,0-.28-.04-.55-.1-.81s-.19-.47-.38-.64c-.18-.17-.44-.25-.77-.24-.23,0-.44.05-.63.16s-.33.24-.42.38c.09.1.16.21.2.34s.06.24.06.34-.03.21-.09.34-.15.25-.28.34c-.13.09-.3.14-.51.14-.27-.02-.47-.12-.62-.3-.14-.18-.21-.4-.21-.65,0-.2.06-.41.18-.64.12-.23.3-.45.55-.66.24-.21.54-.38.89-.52s.76-.2,1.22-.2c.35,0,.69.04,1.03.13s.66.23.94.42.51.44.68.75c.17.31.25.7.25,1.16,0,.22-.04.44-.12.68-.08.24-.22.5-.43.78-.21.28-.5.6-.87.97-.37.36-.85.79-1.44,1.27-.48.39-.83.75-1.05,1.07-.23.32-.36.57-.4.74l2.55.06c.2,0,.37,0,.51-.04s.26-.12.34-.25.12-.31.12-.55h.83l-.1,2.12h-5.69Z" fill="var(--gold-luxury, #C8A44D)"/>
      <path d="M222.89,377.66c-.66,0-1.22-.14-1.68-.42-.46-.28-.83-.65-1.11-1.12-.28-.46-.48-.97-.6-1.53-.13-.55-.19-1.1-.19-1.65s.08-1.1.23-1.66.38-1.08.68-1.55.68-.85,1.13-1.14c.45-.29.98-.44,1.59-.44s1.17.14,1.62.43c.45.29.81.66,1.08,1.12.28.46.48.97.61,1.53s.19,1.1.19,1.65-.07,1.09-.21,1.65c-.14.56-.36,1.08-.66,1.55-.29.47-.67.85-1.11,1.14s-.97.44-1.58.44ZM222.97,376.74c.3,0,.55-.1.75-.29s.35-.45.46-.79c.11-.33.18-.72.23-1.15.04-.43.07-.89.07-1.36,0-.53-.02-1.04-.06-1.53-.04-.49-.11-.93-.22-1.31s-.26-.69-.47-.92c-.2-.23-.47-.34-.81-.34-.31,0-.57.1-.78.29-.21.19-.38.46-.5.79-.12.34-.21.72-.27,1.16-.05.43-.08.89-.08,1.38,0,.36.01.74.03,1.12.02.38.06.75.13,1.1.07.35.16.67.28.94s.28.5.49.66c.2.17.45.25.75.25Z" fill="var(--gold-luxury, #C8A44D)"/>
      <path d="M227.66,377.46c0-.45.06-.85.18-1.21s.27-.68.47-.96c.2-.29.41-.55.65-.79s.48-.48.73-.71c.63-.59,1.08-1.12,1.35-1.6.26-.48.4-.95.4-1.42,0-.28-.04-.55-.1-.81s-.19-.47-.38-.64c-.18-.17-.44-.25-.77-.24-.23,0-.44.05-.63.16s-.33.24-.42.38c.09.1.16.21.2.34s.06.24.06.34-.03.21-.09.34-.15.25-.28.34c-.13.09-.3.14-.51.14-.27-.02-.47-.12-.62-.3-.14-.18-.21-.4-.21-.65,0-.2.06-.41.18-.64.12-.23.3-.45.55-.66.24-.21.54-.38.89-.52s.76-.2,1.22-.2c.35,0,.69.04,1.03.13s.66.23.94.42.51.44.68.75c.17.31.25.7.25,1.16,0,.22-.04.44-.12.68-.08.24-.22.5-.43.78-.21.28-.5.6-.87.97-.37.36-.85.79-1.44,1.27-.48.39-.83.75-1.05,1.07-.23.32-.36.57-.4.74l2.55.06c.2,0,.37,0,.51-.04s.26-.12.34-.25.12-.31.12-.55h.83l-.1,2.12h-5.69Z" fill="var(--gold-luxury, #C8A44D)"/>
      <path d="M237.94,377.66c-.77,0-1.39-.18-1.85-.54-.46-.36-.79-.87-.99-1.53-.2-.66-.3-1.43-.3-2.33,0-.3.03-.67.09-1.11s.17-.88.31-1.35c.15-.46.36-.9.62-1.31.27-.41.61-.74,1.03-.99.42-.25.92-.38,1.51-.38.55,0,.99.09,1.34.27.35.18.61.41.77.67.17.26.25.53.25.8,0,.23-.07.45-.21.64s-.34.29-.61.29c-.32,0-.54-.09-.67-.28-.13-.19-.19-.37-.19-.54,0-.07.01-.16.04-.27.03-.11.07-.21.14-.3-.07-.1-.18-.19-.33-.27s-.34-.11-.55-.09c-.25.02-.47.1-.66.24-.19.14-.34.33-.47.56-.13.23-.23.49-.3.77-.07.29-.13.58-.17.88-.04.3-.06.59-.07.87.1-.11.23-.22.41-.33.18-.11.38-.2.6-.27.22-.07.44-.11.65-.12.49-.02.9.04,1.25.19.35.14.63.35.86.62.22.27.39.6.5.97.11.37.16.78.16,1.22,0,.55-.14,1.05-.41,1.5-.27.46-.65.82-1.13,1.09-.48.27-1.03.41-1.64.41ZM238.01,376.75c.3,0,.54-.08.71-.25s.29-.39.35-.66c.06-.27.1-.56.1-.85,0-.2-.01-.43-.03-.68s-.07-.51-.15-.75-.19-.45-.35-.61-.37-.24-.64-.24c-.18,0-.36.04-.53.12-.17.08-.32.18-.46.31-.13.13-.24.27-.32.43,0,.3.02.64.07,1,.04.36.11.71.21,1.05.1.33.23.61.4.83.17.22.38.33.63.33Z" fill="var(--gold-luxury, #C8A44D)"/>
      <path d="M176.56,335.76l1.56-.73-.05.39c-.03.3-.06.55-.08.75-.02.2-.04.35-.06.46l-.18,1.21s-.02.14-.06.39c.84-.84,1.67-1.58,2.5-2.22.83-.65,1.59-1.12,2.26-1.44.68-.31,1.3-.47,1.86-.47.59,0,1.07.2,1.42.61.35.4.52.96.52,1.67,0,.8-.27,1.69-.81,2.69-.54.99-1.31,2.02-2.31,3.07-1.08,1.14-2.06,2.01-2.95,2.6.32-.02.5-.03.54-.03,1.09,0,1.98.32,2.68.97s1.04,1.48,1.04,2.51-.3,2.04-.89,3.04c-.6,1-1.42,1.86-2.47,2.57-1.16.8-2.51,1.2-4.06,1.2-1.29,0-2.21-.25-2.74-.76l.74-.97c.32.34.73.62,1.21.84.48.22.98.33,1.5.33.91,0,1.75-.28,2.54-.83s1.41-1.28,1.88-2.2c.47-.91.7-1.89.7-2.93,0-.66-.12-1.22-.36-1.69-.24-.47-.57-.83-1.01-1.09-.43-.26-.94-.39-1.53-.39-.28,0-.62.05-1.01.15l.15-.74c.9-.51,1.78-1.18,2.63-1.99.86-.81,1.58-1.66,2.16-2.55.78-1.17,1.17-2.24,1.17-3.21,0-.58-.15-1.05-.46-1.41-.31-.35-.71-.53-1.22-.53-.91,0-2.08.59-3.51,1.77-.98.82-1.76,1.59-2.33,2.32l-.04.27c-.16,1.1-.39,2.29-.69,3.58-.3,1.29-.66,2.64-1.08,4.06s-.83,2.71-1.25,3.87c-.48,1.35-.95,2.35-1.41,3-.45.65-.9.98-1.35.98-.69,0-1.03-.57-1.03-1.72,0-.77.14-1.75.43-2.96.29-1.21.65-2.36,1.08-3.46,1.04-2.65,2.32-4.86,3.84-6.62.09-.6.18-1.3.27-2.12.1-.99.17-1.74.21-2.26ZM175.92,341.06c-.77.94-1.5,2.08-2.2,3.44s-1.27,2.73-1.7,4.13c-.26.85-.48,1.68-.64,2.51-.17.83-.25,1.46-.25,1.91,0,.63.16.95.47.95.22,0,.43-.17.64-.48s.45-.84.76-1.6c.16-.4.35-.91.56-1.53s.41-1.21.58-1.78c.18-.57.37-1.24.58-2.01.21-.77.36-1.36.46-1.79.36-1.5.62-2.76.76-3.77Z" fill="var(--gold-luxury, #C8A44D)"/>
      <path d="M192.43,352.26l.27.23c-.63.83-1.24,1.43-1.83,1.79-.6.37-1.24.55-1.92.55-.82,0-1.47-.27-1.97-.82s-.74-1.27-.74-2.17.24-1.83.72-2.76c.48-.93,1.08-1.71,1.8-2.32.72-.61,1.44-.92,2.14-.92.41,0,.75.12,1.02.36s.4.55.4.94c0,.78-.42,1.55-1.27,2.33s-2,1.44-3.47,1.98c0,.08-.01.17-.01.27,0,.7.19,1.26.58,1.7.38.44.88.66,1.48.66.47,0,.93-.15,1.38-.45.44-.3.92-.76,1.42-1.4ZM187.59,351.11c1.09-.48,1.93-1.02,2.51-1.62.39-.4.71-.84.95-1.3s.36-.88.36-1.26c0-.47-.22-.71-.65-.71-.66,0-1.32.52-1.99,1.55s-1.07,2.15-1.19,3.34Z" fill="var(--gold-luxury, #C8A44D)"/>
      <path d="M197.1,346.53l-1.15,5.04c-.12.56-.18.95-.18,1.18,0,.36.08.66.26.88.17.22.4.33.68.33s.52-.08.75-.24c.23-.16.57-.48,1.04-.98l.18-.18.23.23c-.6.73-1.09,1.24-1.49,1.54-.4.3-.79.45-1.17.45-.48,0-.87-.16-1.16-.48-.29-.32-.43-.73-.43-1.25,0-.38.08-.94.23-1.67l.98-4.86h-1.45l.11-.51h1.45l.85-4.09,1.45-.58-1.06,4.66h2.45l-.11.51h-2.45Z" fill="var(--gold-luxury, #C8A44D)"/>
      <path d="M200.23,350.31c.87-1.05,1.45-2.03,1.74-2.94-.82-.45-1.23-1.1-1.23-1.95,0-.4.1-.73.29-.98s.43-.38.73-.38.55.14.74.42c.19.28.29.64.29,1.08,0,.31-.06.66-.17,1.04.27.07.52.11.74.11.63,0,1.14-.18,1.54-.54h.73l-.11.21c-.73,1.33-1.33,2.64-1.79,3.93-.47,1.29-.7,2.25-.7,2.88,0,.23.06.43.18.58s.27.23.44.23c.41,0,1.08-.44,2-1.32l.24.27c-.28.31-.72.7-1.32,1.17-.54.42-1.03.64-1.5.64-.39,0-.7-.13-.93-.39-.23-.26-.34-.62-.34-1.07,0-.76.29-1.72.88-2.88.21-.43.48-.93.82-1.48.33-.56.75-1.22,1.26-1.98l.15-.21c-.33.3-.65.52-.96.64s-.66.19-1.05.19c-.18,0-.37-.02-.58-.08-.32.99-.93,2.01-1.82,3.06l-.27-.24ZM202.31,346.47c.04-.25.06-.46.06-.64,0-.35-.06-.63-.17-.83-.12-.2-.26-.3-.45-.3-.1,0-.19.05-.27.14-.08.1-.11.21-.11.36,0,.47.31.9.94,1.27Z" fill="var(--gold-luxury, #C8A44D)"/>
      <path d="M207.4,351.7c0-.91.25-1.81.73-2.72s1.12-1.64,1.9-2.2c.78-.56,1.57-.85,2.38-.85.85,0,1.53.28,2.05.84.52.56.78,1.28.78,2.17,0,.97-.24,1.91-.72,2.82s-1.11,1.65-1.89,2.23c-.78.58-1.57.87-2.37.87-.86,0-1.55-.29-2.07-.87-.52-.58-.79-1.34-.79-2.29ZM213.88,348.37c0-.61-.15-1.11-.45-1.5-.3-.39-.68-.59-1.14-.59-.42,0-.83.14-1.22.41-.39.27-.74.67-1.07,1.2-.36.61-.66,1.31-.9,2.12s-.36,1.52-.36,2.15c0,.75.15,1.32.44,1.73s.71.61,1.26.61c.88,0,1.65-.61,2.32-1.83.34-.62.62-1.33.82-2.1s.3-1.5.3-2.18Z" fill="var(--gold-luxury, #C8A44D)"/>
      <path d="M219.84,346.53l-1.15,5.04c-.12.56-.18.95-.18,1.18,0,.36.09.66.26.88.17.22.4.33.68.33s.52-.08.75-.24c.23-.16.57-.48,1.04-.98l.18-.18.23.23c-.6.73-1.09,1.24-1.49,1.54-.4.3-.79.45-1.17.45-.48,0-.87-.16-1.16-.48-.29-.32-.43-.73-.43-1.25,0-.38.08-.94.23-1.67l.98-4.86h-1.45l.11-.51h1.45l.85-4.09,1.45-.58-1.06,4.66h2.45l-.11.51h-2.45Z" fill="var(--gold-luxury, #C8A44D)"/>
      <path d="M222.91,354.76l4.03-20.71,1.59-.77-4.19,18.44c.04-.07.06-.12.06-.14l.35-.79c.59-1.35,1.34-2.52,2.24-3.51.85-.92,1.63-1.38,2.35-1.38.38,0,.69.12.92.37.23.25.35.58.35.99,0,.23-.06.56-.17.98l-.15.64-.47,1.85-.14.59c-.15.61-.23,1.07-.23,1.39s.06.58.17.78c.11.2.26.29.44.29.31,0,.81-.37,1.5-1.12l.23.21-.14.17c-.58.68-1,1.13-1.28,1.37-.28.24-.53.36-.75.36-.31,0-.58-.17-.8-.5s-.33-.72-.33-1.17c0-.27.07-.75.2-1.44l.58-3.21c.09-.47.14-.83.14-1.06,0-.21-.06-.37-.17-.48-.11-.11-.26-.17-.45-.17-.37,0-.8.22-1.29.66-.48.44-.97,1.05-1.46,1.82-.49.78-.92,1.61-1.28,2.49-.36.88-.64,1.79-.82,2.72l-1.01.32Z" fill="var(--gold-luxury, #C8A44D)"/>
      <path d="M241.63,345.66l-1.42,5.54c-.15.61-.23,1.08-.23,1.42,0,.3.07.56.2.79.13.22.29.33.48.33.29,0,.78-.36,1.45-1.07l.21.21-.17.2c-.54.62-.95,1.05-1.23,1.29-.29.25-.54.37-.75.37-.32,0-.6-.17-.84-.51-.24-.34-.36-.73-.36-1.17,0-.32.12-1.05.36-2.19l.12-.58c-.37.87-.87,1.7-1.5,2.5-1.05,1.33-2.05,2-3.01,2-.58,0-1.03-.21-1.36-.62-.33-.41-.5-.97-.5-1.66,0-.95.27-1.94.81-2.98.54-1.04,1.21-1.89,2.01-2.57.8-.67,1.58-1.01,2.34-1.01.8,0,1.39.29,1.79.88l.17-.58,1.42-.59ZM239.89,347.6c-.12-.38-.33-.68-.61-.9-.29-.22-.62-.33-.99-.33-.44,0-.91.2-1.41.61-.49.41-.95.98-1.36,1.7-.32.57-.59,1.21-.81,1.91-.22.7-.33,1.27-.33,1.73,0,.51.1.92.29,1.21.2.29.48.44.84.44.46,0,.95-.22,1.45-.65.5-.43,1-1.05,1.5-1.86.3-.46.54-.93.71-1.39s.36-1.11.58-1.94l.14-.53Z" fill="var(--gold-luxury, #C8A44D)"/>
      <path d="M249.31,333.28l-3.98,17.45-.14.59c-.13.56-.2,1.02-.2,1.41,0,.31.06.57.17.76.12.2.26.29.43.29.31,0,.81-.37,1.5-1.12l.24.21-.15.17c-.58.68-1,1.13-1.27,1.37-.27.24-.52.36-.76.36-.3,0-.57-.17-.79-.51-.23-.34-.34-.72-.34-1.16,0-.3.07-.78.2-1.44l3.5-17.62,1.59-.77Z" fill="var(--gold-luxury, #C8A44D)"/>
    </g>
  </defs>
</svg>